<?xml version="1.0" encoding="utf-8"?>
<svg xmlns="http://www.w3.org/2000/svg"
	xmlns:xlink="http://www.w3.org/1999/xlink"
	width="132px" height="154px" viewBox="0 0 66 77">
<path fillRule="evenodd" d="M 55.78 43.51C 55.78 43.51 55.78 41.14 55.78 41.14 60.14 40.97 63.62 37.39 63.62 32.99 63.62 28.48 59.96 24.83 55.45 24.83 50.94 24.83 47.29 28.48 47.29 32.99 47.29 37.27 50.59 40.78 54.78 41.12 54.78 41.12 54.78 43.5 54.78 43.5 50.79 43.31 47.36 40.96 45.68 37.57 41.34 44.62 33.55 49.32 24.66 49.32 11.04 49.32-0 38.28-0 24.66-0 11.04 11.04-0 24.66-0 38.04-0 48.92 10.65 49.31 23.93 51.02 22.78 53.07 22.11 55.28 22.11 61.2 22.11 66 26.91 66 32.82 66 38.57 61.47 43.25 55.78 43.51ZM 24.66 2.72C 12.55 2.72 2.72 12.54 2.72 24.66 2.72 36.78 12.55 46.6 24.66 46.6 33.52 46.6 41.15 41.35 44.61 33.79 44.58 33.47 44.57 33.15 44.57 32.82 44.57 32.11 44.64 31.41 44.77 30.73 44.77 30.73 27.04 26.87 27.04 26.87 27.04 26.87 26.62 26.87 26.62 26.87 26.14 27.29 25.52 27.55 24.83 27.55 23.33 27.55 22.11 26.33 22.11 24.83 22.11 23.77 22.72 22.86 23.6 22.41 23.29 22.26 23.12 22.18 23.5 22.18 23.5 22.18 23.63 22.39 23.63 22.39 23.64 22.39 23.65 22.38 23.67 22.37 23.67 22.37 23.56 22.18 23.56 22.18 23.66 22.18 23.77 22.2 23.87 22.21 23.87 22.21 24.15 21.74 24.15 21.74 24.15 21.74 24.31 21.83 24.31 21.83 24.31 21.83 31.94 3.96 31.94 3.96 29.66 3.16 27.21 2.72 24.66 2.72ZM 34.69 5.14C 34.69 5.14 26.82 22.98 26.82 22.98 26.96 23.13 27.08 23.29 27.19 23.47 27.19 23.47 27.22 23.47 27.22 23.47 27.22 23.47 27.22 23.52 27.22 23.52 27.27 23.61 27.31 23.71 27.35 23.81 27.35 23.81 27.9 23.81 27.9 23.81 27.9 23.81 27.9 24 27.9 24 27.9 24 45.64 28.15 45.64 28.15 45.89 27.63 46.18 27.14 46.51 26.68 46.57 26.01 46.61 25.34 46.61 24.66 46.61 16.15 41.76 8.78 34.69 5.14ZM 55.78 43.51C 55.78 43.51 55.78 49 55.78 49 55.78 49 54.78 49 54.78 49 54.78 49 54.78 43.5 54.78 43.5 54.95 43.51 55.11 43.54 55.28 43.54 55.45 43.54 55.62 43.52 55.78 43.51ZM 54.78 41.12C 54.78 41.12 54.78 34.23 54.78 34.23 54.93 34.31 55.1 34.35 55.28 34.35 55.46 34.35 55.63 34.31 55.78 34.24 55.78 34.24 55.78 41.14 55.78 41.14 55.67 41.14 55.56 41.16 55.45 41.16 55.23 41.16 55 41.14 54.78 41.12ZM 54.09 33.16C 54.09 32.51 54.63 31.97 55.28 31.97 55.94 31.97 56.47 32.51 56.47 33.16 56.47 33.64 56.19 34.05 55.78 34.24 55.78 34.24 55.78 33.34 55.78 33.34 55.78 33.34 54.78 33.34 54.78 33.34 54.78 33.34 54.78 34.23 54.78 34.23 54.38 34.04 54.09 33.64 54.09 33.16ZM 60.22 50C 60.22 50 54.78 50 54.78 50 54.78 50 54.78 49.69 54.78 49.69 54.78 49.69 55.78 49.69 55.78 49.69 55.78 49.69 55.78 49 55.78 49 55.78 49 60.22 49 60.22 49 60.22 49 60.22 50 60.22 50ZM 34.5 59C 33.67 59 33 58.33 33 57.5 33 57.5 33 52.5 33 52.5 33 51.67 33.67 51 34.5 51 35.33 51 36 51.67 36 52.5 36 52.5 36 57.5 36 57.5 36 58.33 35.33 59 34.5 59ZM 36 66.5C 36 67.33 35.33 68 34.5 68 33.67 68 33 67.33 33 66.5 33 66.5 33 62.5 33 62.5 33 61.67 33.67 61 34.5 61 35.33 61 36 61.67 36 62.5 36 62.5 36 66.5 36 66.5ZM 31.22 68.57C 31.22 68.57 34.5 72.09 34.5 72.09 34.5 72.09 37.78 68.57 37.78 68.57 38.52 67.78 39.71 67.78 40.45 68.57 41.19 69.36 41.19 70.65 40.45 71.44 40.45 71.44 35.83 76.39 35.83 76.39 35.1 77.19 33.9 77.19 33.16 76.39 33.16 76.39 28.55 71.44 28.55 71.44 27.81 70.65 27.81 69.36 28.55 68.57 29.28 67.78 30.48 67.78 31.22 68.57Z" fill="rgb(81,79,79)"/></svg>